<?xml version="1.0" standalone="yes"?>

<svg version="1.1" viewBox="0.0 0.0 128.0 128.0" fill="none" stroke="none" stroke-linecap="square" stroke-miterlimit="10" xmlns="http://www.w3.org/2000/svg" xmlns:xlink="http://www.w3.org/1999/xlink"><clipPath id="p.0"><path d="m0 0l128.0 0l0 128.0l-128.0 0l0 -128.0z" clip-rule="nonzero"></path></clipPath><g clip-path="url(#p.0)"><path fill="#000000" fill-opacity="0.0" d="m0 0l128.0 0l0 128.0l-128.0 0z" fill-rule="nonzero"></path><path fill="#434343" d="m3.5380578 23.008276l0 0c0 -11.077807 8.980337 -20.058146 20.058144 -20.058146l80.23017 0l0 0c5.319748 0 10.421616 2.113263 14.18325 5.874894c3.7616348 3.761632 5.874893 8.863499 5.874893 14.18325l0 82.560875c0 11.077805 -8.980339 20.058144 -20.058144 20.058144l-80.23017 0c-11.077806 0 -20.058144 -8.980339 -20.058144 -20.058144z" fill-rule="nonzero"></path><path stroke="#000000" stroke-width="1.0" stroke-linejoin="round" stroke-linecap="butt" d="m3.5380578 23.008276l0 0c0 -11.077807 8.980337 -20.058146 20.058144 -20.058146l80.23017 0l0 0c5.319748 0 10.421616 2.113263 14.18325 5.874894c3.7616348 3.761632 5.874893 8.863499 5.874893 14.18325l0 82.560875c0 11.077805 -8.980339 20.058144 -20.058144 20.058144l-80.23017 0c-11.077806 0 -20.058144 -8.980339 -20.058144 -20.058144z" fill-rule="nonzero"></path><path fill="#000000" fill-opacity="0.0" d="m3.3940282 7.0052104l120.34646 0l0 109.70079l-120.34646 0z" fill-rule="nonzero"></path><path fill="#000000" d="m102.03601 46.048103q-2.4375 -1.1875 -6.4375 -2.6875q-4.0 -1.5 -9.0625 -2.84375q-5.0625 -1.34375 -11.0 -2.25q-5.9375 -0.90625 -12.187504 -0.90625q-5.0 0 -8.53125 0.3125q-3.53125 0.3125 -5.9375 0.8125q-2.40625 0.5 -3.8125 1.15625q-1.40625 0.65625 -2.15625 1.34375q-0.75 0.6875 -0.96875 1.375q-0.21875 0.6875 -0.21875 1.25q0 1.875 1.875 3.28125q1.875 1.40625 5.125 2.5q3.25 1.09375 7.5625 2.0625q4.3125 0.96875 9.156254 2.0q4.84375 1.03125 10.0 2.25q5.15625 1.21875 10.0 2.84375q4.84375 1.625 9.15625 3.78125q4.3125 2.15625 7.5625 5.03125q3.25 2.875 5.125 6.625q1.875 3.75 1.875 8.5625q0 6.1875 -2.1875 10.625q-2.1875 4.4375 -5.84375 7.5q-3.65625 3.0625 -8.46875 4.90625q-4.8125 1.84375 -10.09375 2.84375q-5.28125 1.0 -10.6875 1.3125q-5.40625 0.3125 -10.281254 0.3125q-12.75 0 -23.59375 -2.09375q-10.84375 -2.09375 -19.15625 -5.21875l0 -20.5q8.5625 4.75 19.53125 7.4375q10.96875 2.6875 23.46875 2.6875q7.375004 0 12.031254 -0.78125q4.65625 -0.78125 7.28125 -2.0q2.625 -1.21875 3.5625 -2.65625q0.9375 -1.4375 0.9375 -2.75q0 -2.0625 -1.875 -3.59375q-1.875 -1.53125 -5.125 -2.6875q-3.25 -1.15625 -7.5625 -2.125q-4.3125 -0.96875 -9.156254 -1.9375q-4.84375 -0.96875 -9.96875 -2.09375q-5.125 -1.125 -9.96875 -2.65625q-4.84375 -1.53125 -9.15625 -3.5625q-4.3125 -2.03125 -7.5625 -4.8125q-3.25 -2.78125 -5.125 -6.4375q-1.875 -3.65625 -1.875 -8.46875q0 -5.6875 2.0 -9.8125q2.0 -4.125 5.40625 -7.03125q3.40625 -2.90625 7.875 -4.71875q4.46875 -1.8125 9.40625 -2.8125q4.9375 -1.0 10.0 -1.375q5.0625 -0.375 9.625 -0.375q5.000004 0 10.281254 0.5q5.28125 0.5 10.40625 1.40625q5.125 0.90625 9.90625 2.09375q4.78125 1.1875 8.84375 2.5l0 19.875z" fill-rule="nonzero"></path><path fill="#000000" fill-opacity="0.0" d="m9.435696 4.9162793l108.72441 0l0 109.70078l-108.72441 0z" fill-rule="nonzero"></path><path fill="#f65e01" d="m92.64946 48.161045q-1.828125 -0.890625 -4.828125 -2.015625q-3.0 -1.125 -6.796875 -2.125q-3.796875 -1.015625 -8.25 -1.6875q-4.453125 -0.6875 -9.140621 -0.6875q-3.75 0 -6.40625 0.234375q-2.640625 0.234375 -4.453125 0.609375q-1.796875 0.375 -2.859375 0.875q-1.046875 0.484375 -1.609375 1.0q-0.5625 0.515625 -0.734375 1.03125q-0.15625 0.515625 -0.15625 0.9375q0 1.40625 1.40625 2.46875q1.40625 1.046875 3.84375 1.875q2.4375 0.8125 5.671875 1.546875q3.234375 0.71875 6.859371 1.5q3.640625 0.765625 7.5 1.6875q3.875 0.90625 7.5 2.125q3.640625 1.21875 6.875 2.84375q3.234375 1.609375 5.671875 3.7656288q2.4375 2.15625 3.84375 4.96875q1.40625 2.8125 1.40625 6.421875q0 4.640625 -1.640625 7.96875q-1.640625 3.328125 -4.390625 5.625q-2.734375 2.296875 -6.34375 3.6875q-3.609375 1.375 -7.578125 2.125q-3.953125 0.75 -8.015625 0.984375q-4.046875 0.234375 -7.703121 0.234375q-9.5625 0 -17.703125 -1.578125q-8.125 -1.5625 -14.359375 -3.90625l0 -15.375q6.421875 3.5625 14.640625 5.578125q8.234375 2.015625 17.609375 2.015625q5.531246 0 9.015621 -0.578125q3.5 -0.59375 5.46875 -1.5q1.96875 -0.921875 2.671875 -2.0q0.703125 -1.078125 0.703125 -2.0625q0 -1.546875 -1.40625 -2.6875q-1.40625 -1.15625 -3.84375 -2.015625q-2.4375 -0.875 -5.671875 -1.59375q-3.234375 -0.734375 -6.874996 -1.453125q-3.625 -0.734375 -7.46875 -1.578125q-3.84375 -0.84375 -7.484375 -1.984375q-3.625 -1.15625 -6.859375 -2.6718788q-3.234375 -1.53125 -5.671875 -3.609375q-2.4375 -2.09375 -3.84375 -4.828125q-1.40625 -2.75 -1.40625 -6.359375q0 -4.265625 1.5 -7.359375q1.5 -3.09375 4.046875 -5.265625q2.5625 -2.1875 5.90625 -3.546875q3.359375 -1.359375 7.0625 -2.109375q3.703125 -0.75 7.5 -1.03125q3.796875 -0.28125 7.21875 -0.28125q3.7499962 0 7.703121 0.375q3.96875 0.375 7.8125 1.0625q3.84375 0.671875 7.421875 1.5625q3.59375 0.890625 6.640625 1.875l0 14.90625z" fill-rule="nonzero"></path></g></svg>

